<svg xmlns="http://www.w3.org/2000/svg" viewBox="0 0 104.83 105.75"><defs><style>.cls-1{fill:#fff;}</style></defs><g id="Layer_2" data-name="Layer 2"><g id="Layer_3" data-name="Layer 3"><path class="cls-1" d="M103.81,71c-1.72-2.24-5.6-4.11-13.45.53.72-3.26-1.87-5.28-4.93-5.28A11.41,11.41,0,0,0,77,69.48c-3.62-4.76-7.34-4.2-14.58.29-2.77,1.72-5.2,3.18-7,4.2-.48.28-.87.48-1.26.69a10.54,10.54,0,0,0,2.22.27c10.17,0,18.19,0,18.19,8.82,0,6.77-7.87,8.8-12,8.89H48.15c-7.76,0-15.35-8.17-15.35-8.17s9,3.68,15.35,3.68H62.52s7.67-.3,7.67-4.4c0-3.75-3.87-4.41-10-4.41-10,0-14.77-4.51-14.77-4.51s-7.74-5.65-10.12-7.13c-5.62-3.52-8.67-5.32-18.78-1.47C10.3,68.61,0,73.49,0,73.49L12.53,101.3l5.9-3.6c3.54-2.24,6.86-2.18,11.51,0a158.52,158.52,0,0,0,17.53,6.43c7.67,2.43,9,2.1,14-.81,4.31-2.47,34.82-20.52,38-22.78,5-3.53,6.56-6.62,4.28-9.57ZM54.76,17.63A19.84,19.84,0,1,0,74.6,37.47,19.83,19.83,0,0,0,54.76,17.63Zm3,28.82h-6v-12H47.09l6-6h4.68Z"/><path class="cls-1" d="M72.39,0A15.37,15.37,0,0,0,57.18,13.35a24.1,24.1,0,0,1,12.89,5.33V13.1H66.43l4.66-4.66h3.64v14h-1a24.52,24.52,0,0,1,4,7.43A15.4,15.4,0,0,0,72.39,0Z"/></g></g></svg>