<svg xmlns="http://www.w3.org/2000/svg" viewBox="0 0 992.72 426.13"><defs><style>.cls-1,.cls-4{fill:#1d1d1b;}.cls-2{fill:#87bd3b;}.cls-3{font-size:111.91px;fill:#fff;letter-spacing:-0.03em;}.cls-3,.cls-4{font-family:Poppins-SemiBold, Poppins;font-weight:600;}.cls-4{font-size:56.45px;letter-spacing:-0.03em;}</style></defs><g id="Layer_2" data-name="Layer 2"><g id="Layer_3" data-name="Layer 3"><path class="cls-1" d="M52.44,42V85.56h70.22V126H52.44v47.23h79.42v42H0V0H131.86V42Z"/><path class="cls-1" d="M209.62,215.27l-24.78-35.9L164,215.27H121.14l42.62-66L120,86h44.47l24.78,35.67L210.09,86h42.85l-43.32,65.09,44.48,64.16Z"/><path class="cls-1" d="M315.48,89.73q10.18-5.57,23.85-5.56a53.49,53.49,0,0,1,29,8.11q13,8.1,20.49,23.16t7.53,35q0,19.93-7.53,35.09t-20.49,23.4a53,53,0,0,1-29,8.22,49.2,49.2,0,0,1-23.74-5.56,43.47,43.47,0,0,1-16.1-14.36v79.68h-39.6V86h39.6v18.3A42.94,42.94,0,0,1,315.48,89.73Zm32.31,37.41a27.17,27.17,0,0,0-20.27-8.46,26.74,26.74,0,0,0-20,8.57q-8.22,8.58-8.22,23.4T307.48,174a27.71,27.71,0,0,0,40.19-.12q8.34-8.68,8.34-23.51T347.79,127.14Z"/><path class="cls-1" d="M528.8,160.14H439.16q.91,12,7.76,18.42a23.72,23.72,0,0,0,16.79,6.37q14.82,0,20.62-12.51h42.15a57.77,57.77,0,0,1-11.7,22.93,58.45,58.45,0,0,1-21.19,16,68.07,68.07,0,0,1-28.49,5.79q-19,0-33.82-8.11a57.63,57.63,0,0,1-23.16-23.16q-8.34-15-8.34-35.2T408,115.44a56.85,56.85,0,0,1,23-23.16q14.82-8.11,34.05-8.11,18.76,0,33.35,7.87a56.59,56.59,0,0,1,22.82,22.47q8.22,14.59,8.22,34.05A101.68,101.68,0,0,1,528.8,160.14Zm-39.84-22q0-10.2-6.95-16.22t-17.37-6a25.07,25.07,0,0,0-16.79,5.79q-6.84,5.79-8.46,16.45Z"/><path class="cls-1" d="M655.84,99.34q13.56,14.72,13.55,40.42v75.51H630V145.09q0-13-6.72-20.15t-18.07-7.19q-11.36,0-18.06,7.19t-6.72,20.15v70.18H540.84V86h39.61v17.14a41.8,41.8,0,0,1,16.21-13.55,51.57,51.57,0,0,1,22.93-5Q642.29,84.63,655.84,99.34Z"/><path class="cls-1" d="M709.93,211.33q-13.21-5.79-20.85-15.87a41.6,41.6,0,0,1-8.57-22.58h39.14a15.07,15.07,0,0,0,6.26,10.89,22.1,22.1,0,0,0,13.66,4.17q7.41,0,11.47-2.9a8.87,8.87,0,0,0,4.05-7.53q0-5.55-5.79-8.22t-18.76-5.91a174.33,174.33,0,0,1-23.16-6.83,39.83,39.83,0,0,1-16-11.35q-6.72-7.75-6.72-21A35.55,35.55,0,0,1,690.82,104Q697,94.82,708.88,89.5t28.38-5.33q24.32,0,38.33,12t16.1,32h-36.6a15.83,15.83,0,0,0-5.9-10.66q-5-3.93-13.09-3.93-6.95,0-10.66,2.66a8.51,8.51,0,0,0-3.7,7.29q0,5.56,5.9,8.34t18.42,5.56a201.91,201.91,0,0,1,23.39,7.3,40.28,40.28,0,0,1,15.87,11.58q6.82,8,7.06,21.43A34,34,0,0,1,786,198q-6.37,8.93-18.29,14T740,217.12Q723.12,217.12,709.93,211.33Z"/><path class="cls-1" d="M928.35,160.14H838.71q.91,12,7.76,18.42a23.72,23.72,0,0,0,16.79,6.37q14.82,0,20.61-12.51H926a57.77,57.77,0,0,1-11.7,22.93,58.53,58.53,0,0,1-21.19,16,68.07,68.07,0,0,1-28.49,5.79q-19,0-33.82-8.11a57.63,57.63,0,0,1-23.16-23.16q-8.34-15-8.34-35.2t8.22-35.21A56.88,56.88,0,0,1,830.6,92.28q14.82-8.11,34-8.11,18.76,0,33.35,7.87a56.59,56.59,0,0,1,22.82,22.47Q929,129.1,929,148.56A101.68,101.68,0,0,1,928.35,160.14Zm-39.84-22q0-10.2-7-16.22t-17.37-6a25.12,25.12,0,0,0-16.8,5.79q-6.82,5.79-8.45,16.45Z"/><rect class="cls-2" x="441.85" y="233.53" width="495.12" height="173.17" rx="86.59"/><text class="cls-3" transform="translate(486.51 359.76)">Tracker</text><text class="cls-4" transform="translate(913.13 82.17)">TM</text></g></g></svg>